<svg width="320" height="320" viewBox="0 0 320 320" fill="none" xmlns="http://www.w3.org/2000/svg">
  <defs>
    <linearGradient id="shieldGradient" x1="46" y1="42" x2="270" y2="284" gradientUnits="userSpaceOnUse">
      <stop offset="0" stop-color="#0F3561"/>
      <stop offset="0.58" stop-color="#186B85"/>
      <stop offset="1" stop-color="#1D8F8F"/>
    </linearGradient>
    <linearGradient id="pulseGradient" x1="82" y1="160" x2="238" y2="160" gradientUnits="userSpaceOnUse">
      <stop offset="0" stop-color="#F7FCFF"/>
      <stop offset="1" stop-color="#C7F4F2"/>
    </linearGradient>
  </defs>

  <path d="M160 20L278 70V154C278 233 230 286 160 304C90 286 42 233 42 154V70L160 20Z" fill="url(#shieldGradient)"/>
  <path d="M160 35L265 79V153C265 224 222 272 160 289C98 272 55 224 55 153V79L160 35Z" stroke="rgba(255,255,255,0.35)" stroke-width="3"/>

  <circle cx="160" cy="162" r="72" fill="rgba(255,255,255,0.12)"/>
  <circle cx="160" cy="162" r="56" fill="rgba(10,32,57,0.35)"/>

  <path d="M84 160H118L132 136L151 183L169 150L181 166H236" stroke="url(#pulseGradient)" stroke-width="13" stroke-linecap="round" stroke-linejoin="round"/>
  <circle cx="120" cy="160" r="10" fill="#F19E48"/>
  <circle cx="236" cy="160" r="9" fill="#F19E48"/>

  <path d="M132 236C143 244 151 248 160 248C169 248 177 244 188 236" stroke="#A8F1E9" stroke-width="8" stroke-linecap="round"/>
</svg>
